<mxfile host="app.diagrams.net" modified="2021-12-30T04:46:22.496Z" agent="5.0 (Windows NT 10.0; Win64; x64) AppleWebKit/537.36 (KHTML, like Gecko) Chrome/96.0.4664.110 Safari/537.36" etag="eQ1S-gA6Iq8g3B1fgjaW" version="16.1.0" type="github" pages="2">
  <diagram id="rVE9AglqgYddIuh11Cyf" name="第 1 页">
    <mxGraphModel dx="1237" dy="1832" grid="1" gridSize="10" guides="1" tooltips="1" connect="1" arrows="1" fold="1" page="1" pageScale="1" pageWidth="827" pageHeight="1169" math="0" shadow="0">
      <root>
        <mxCell id="0" />
        <mxCell id="1" parent="0" />
        <mxCell id="vVe2Fx5Xyn_7vQ3Fg-Rb-41" value="" style="rounded=0;whiteSpace=wrap;html=1;fontSize=16;fontColor=#000000;strokeColor=#67AB9F;fillColor=#FFFFFF;strokeWidth=2;" vertex="1" parent="1">
          <mxGeometry x="100" y="350" width="1280" height="90" as="geometry" />
        </mxCell>
        <mxCell id="vVe2Fx5Xyn_7vQ3Fg-Rb-42" value="" style="rounded=0;whiteSpace=wrap;html=1;fontSize=16;fontColor=#000000;strokeColor=#67AB9F;fillColor=#FFFFFF;strokeWidth=2;" vertex="1" parent="1">
          <mxGeometry x="100" y="450" width="1280" height="90" as="geometry" />
        </mxCell>
        <mxCell id="vVe2Fx5Xyn_7vQ3Fg-Rb-40" value="" style="rounded=0;whiteSpace=wrap;html=1;fontSize=16;fontColor=#000000;strokeColor=#67AB9F;fillColor=#FFFFFF;strokeWidth=2;" vertex="1" parent="1">
          <mxGeometry x="100" y="250" width="1280" height="90" as="geometry" />
        </mxCell>
        <mxCell id="vVe2Fx5Xyn_7vQ3Fg-Rb-39" value="" style="rounded=0;whiteSpace=wrap;html=1;fontSize=16;fontColor=#000000;strokeColor=#67AB9F;fillColor=#FFFFFF;strokeWidth=2;" vertex="1" parent="1">
          <mxGeometry x="100" y="150" width="1280" height="90" as="geometry" />
        </mxCell>
        <mxCell id="vVe2Fx5Xyn_7vQ3Fg-Rb-1" value="" style="rounded=1;whiteSpace=wrap;html=1;fillColor=#D6D6D6;fontColor=#333333;strokeColor=#F7F7F7;" vertex="1" parent="1">
          <mxGeometry x="100" y="30" width="1280" height="110" as="geometry" />
        </mxCell>
        <mxCell id="vVe2Fx5Xyn_7vQ3Fg-Rb-2" value="&lt;font color=&quot;#ffffff&quot; size=&quot;1&quot;&gt;&lt;span style=&quot;font-size: 25px&quot;&gt;供水企业业务管理制度&lt;/span&gt;&lt;/font&gt;" style="rounded=1;whiteSpace=wrap;html=1;strokeColor=#FFFFFF;fillColor=#8DCACC;" vertex="1" parent="1">
          <mxGeometry x="30" y="30" width="50" height="1140" as="geometry" />
        </mxCell>
        <mxCell id="vVe2Fx5Xyn_7vQ3Fg-Rb-3" value="" style="fontColor=#0066CC;verticalAlign=top;verticalLabelPosition=bottom;labelPosition=center;align=center;html=1;outlineConnect=0;fillColor=#8DCACC;strokeColor=#8DCACC;gradientColor=none;gradientDirection=north;strokeWidth=2;shape=mxgraph.networks.pc;" vertex="1" parent="1">
          <mxGeometry x="230" y="50" width="70" height="50" as="geometry" />
        </mxCell>
        <mxCell id="vVe2Fx5Xyn_7vQ3Fg-Rb-5" value="电脑端" style="text;html=1;strokeColor=none;fillColor=none;align=center;verticalAlign=middle;whiteSpace=wrap;rounded=0;" vertex="1" parent="1">
          <mxGeometry x="235" y="100" width="60" height="30" as="geometry" />
        </mxCell>
        <mxCell id="vVe2Fx5Xyn_7vQ3Fg-Rb-7" value="手机端" style="text;html=1;strokeColor=none;fillColor=none;align=center;verticalAlign=middle;whiteSpace=wrap;rounded=0;" vertex="1" parent="1">
          <mxGeometry x="720" y="100" width="60" height="30" as="geometry" />
        </mxCell>
        <mxCell id="vVe2Fx5Xyn_7vQ3Fg-Rb-9" value="平板端" style="text;html=1;strokeColor=none;fillColor=none;align=center;verticalAlign=middle;whiteSpace=wrap;rounded=0;" vertex="1" parent="1">
          <mxGeometry x="475" y="100" width="60" height="30" as="geometry" />
        </mxCell>
        <mxCell id="vVe2Fx5Xyn_7vQ3Fg-Rb-11" value="大屏端" style="text;html=1;strokeColor=none;fillColor=none;align=center;verticalAlign=middle;whiteSpace=wrap;rounded=0;" vertex="1" parent="1">
          <mxGeometry x="965" y="100" width="60" height="30" as="geometry" />
        </mxCell>
        <mxCell id="vVe2Fx5Xyn_7vQ3Fg-Rb-12" value="" style="fontColor=#0066CC;verticalAlign=top;verticalLabelPosition=bottom;labelPosition=center;align=center;html=1;outlineConnect=0;fillColor=#CCCCCC;strokeColor=#6881B3;gradientColor=none;gradientDirection=north;strokeWidth=2;shape=mxgraph.networks.pc;" vertex="1" parent="1">
          <mxGeometry x="1201" y="50" width="70" height="50" as="geometry" />
        </mxCell>
        <mxCell id="vVe2Fx5Xyn_7vQ3Fg-Rb-13" value="VR/AR端" style="text;html=1;strokeColor=none;fillColor=none;align=center;verticalAlign=middle;whiteSpace=wrap;rounded=0;" vertex="1" parent="1">
          <mxGeometry x="1206" y="100" width="60" height="30" as="geometry" />
        </mxCell>
        <mxCell id="vVe2Fx5Xyn_7vQ3Fg-Rb-14" value="&lt;font style=&quot;font-size: 16px&quot; color=&quot;#ffffff&quot;&gt;供水管网漏损分析管理平台&lt;/font&gt;" style="rounded=0;whiteSpace=wrap;html=1;strokeColor=#FFFFFF;fillColor=#8DCACC;" vertex="1" parent="1">
          <mxGeometry x="210" y="160" width="201" height="70" as="geometry" />
        </mxCell>
        <mxCell id="vVe2Fx5Xyn_7vQ3Fg-Rb-15" value="&lt;font style=&quot;font-size: 16px&quot; color=&quot;#ffffff&quot;&gt;供水管网水力模型系统&lt;/font&gt;" style="rounded=0;whiteSpace=wrap;html=1;strokeColor=#FFFFFF;fillColor=#8DCACC;" vertex="1" parent="1">
          <mxGeometry x="440" y="160" width="201" height="70" as="geometry" />
        </mxCell>
        <mxCell id="vVe2Fx5Xyn_7vQ3Fg-Rb-16" value="&lt;font style=&quot;font-size: 16px&quot; color=&quot;#ffffff&quot;&gt;抢险应急指挥系统&lt;/font&gt;" style="rounded=0;whiteSpace=wrap;html=1;strokeColor=#FFFFFF;fillColor=#8DCACC;" vertex="1" parent="1">
          <mxGeometry x="670" y="160" width="201" height="70" as="geometry" />
        </mxCell>
        <mxCell id="vVe2Fx5Xyn_7vQ3Fg-Rb-17" value="&lt;font color=&quot;#ffffff&quot;&gt;&lt;span style=&quot;font-size: 16px&quot;&gt;智慧供水综合运营平台&lt;/span&gt;&lt;/font&gt;" style="rounded=0;whiteSpace=wrap;html=1;strokeColor=#FFFFFF;fillColor=#8DCACC;" vertex="1" parent="1">
          <mxGeometry x="899" y="160" width="201" height="70" as="geometry" />
        </mxCell>
        <mxCell id="vVe2Fx5Xyn_7vQ3Fg-Rb-18" value="&lt;font color=&quot;#ffffff&quot;&gt;&lt;span style=&quot;font-size: 16px&quot;&gt;智慧供水大屏展示系统&lt;/span&gt;&lt;/font&gt;" style="rounded=0;whiteSpace=wrap;html=1;strokeColor=#FFFFFF;fillColor=#8DCACC;" vertex="1" parent="1">
          <mxGeometry x="1134" y="160" width="201" height="70" as="geometry" />
        </mxCell>
        <mxCell id="vVe2Fx5Xyn_7vQ3Fg-Rb-19" value="&lt;font color=&quot;#000000&quot;&gt;综合运营&lt;/font&gt;" style="text;html=1;strokeColor=none;fillColor=none;align=center;verticalAlign=middle;whiteSpace=wrap;rounded=0;fontSize=16;fontColor=#FFFFFF;fontStyle=1" vertex="1" parent="1">
          <mxGeometry x="120" y="180" width="70" height="30" as="geometry" />
        </mxCell>
        <mxCell id="vVe2Fx5Xyn_7vQ3Fg-Rb-20" value="&lt;font style=&quot;font-size: 16px&quot; color=&quot;#ffffff&quot;&gt;用户报装管理系统&lt;/font&gt;" style="rounded=0;whiteSpace=wrap;html=1;strokeColor=#FFFFFF;fillColor=#8DCACC;" vertex="1" parent="1">
          <mxGeometry x="210" y="260" width="430" height="70" as="geometry" />
        </mxCell>
        <mxCell id="vVe2Fx5Xyn_7vQ3Fg-Rb-23" value="&lt;font color=&quot;#ffffff&quot;&gt;&lt;span style=&quot;font-size: 16px&quot;&gt;客服热线系统&lt;/span&gt;&lt;/font&gt;" style="rounded=0;whiteSpace=wrap;html=1;strokeColor=#FFFFFF;fillColor=#8DCACC;" vertex="1" parent="1">
          <mxGeometry x="899" y="260" width="431" height="70" as="geometry" />
        </mxCell>
        <mxCell id="vVe2Fx5Xyn_7vQ3Fg-Rb-25" value="&lt;font color=&quot;#000000&quot;&gt;用户服务&lt;/font&gt;" style="text;html=1;strokeColor=none;fillColor=none;align=center;verticalAlign=middle;whiteSpace=wrap;rounded=0;fontSize=16;fontColor=#FFFFFF;fontStyle=1" vertex="1" parent="1">
          <mxGeometry x="120" y="280" width="70" height="30" as="geometry" />
        </mxCell>
        <mxCell id="vVe2Fx5Xyn_7vQ3Fg-Rb-26" value="&lt;font style=&quot;font-size: 16px&quot; color=&quot;#ffffff&quot;&gt;大外勤管理平台&lt;/font&gt;" style="rounded=0;whiteSpace=wrap;html=1;strokeColor=#FFFFFF;fillColor=#8DCACC;" vertex="1" parent="1">
          <mxGeometry x="210" y="360" width="201" height="70" as="geometry" />
        </mxCell>
        <mxCell id="vVe2Fx5Xyn_7vQ3Fg-Rb-27" value="&lt;font color=&quot;#ffffff&quot;&gt;&lt;span style=&quot;font-size: 16px&quot;&gt;工程管理系统&lt;/span&gt;&lt;/font&gt;" style="rounded=0;whiteSpace=wrap;html=1;strokeColor=#FFFFFF;fillColor=#8DCACC;" vertex="1" parent="1">
          <mxGeometry x="524" y="360" width="201" height="70" as="geometry" />
        </mxCell>
        <mxCell id="vVe2Fx5Xyn_7vQ3Fg-Rb-29" value="&lt;font color=&quot;#ffffff&quot;&gt;&lt;span style=&quot;font-size: 16px&quot;&gt;二次供水管理系统&lt;/span&gt;&lt;/font&gt;" style="rounded=0;whiteSpace=wrap;html=1;strokeColor=#FFFFFF;fillColor=#8DCACC;" vertex="1" parent="1">
          <mxGeometry x="829" y="360" width="201" height="70" as="geometry" />
        </mxCell>
        <mxCell id="vVe2Fx5Xyn_7vQ3Fg-Rb-30" value="&lt;font color=&quot;#ffffff&quot;&gt;&lt;span style=&quot;font-size: 16px&quot;&gt;只能消防栓及井盖管理系统&lt;/span&gt;&lt;/font&gt;" style="rounded=0;whiteSpace=wrap;html=1;strokeColor=#FFFFFF;fillColor=#8DCACC;" vertex="1" parent="1">
          <mxGeometry x="1126" y="360" width="201" height="70" as="geometry" />
        </mxCell>
        <mxCell id="vVe2Fx5Xyn_7vQ3Fg-Rb-31" value="&lt;font color=&quot;#000000&quot;&gt;运行管控&lt;/font&gt;" style="text;html=1;strokeColor=none;fillColor=none;align=center;verticalAlign=middle;whiteSpace=wrap;rounded=0;fontSize=16;fontColor=#FFFFFF;fontStyle=1" vertex="1" parent="1">
          <mxGeometry x="120" y="380" width="70" height="30" as="geometry" />
        </mxCell>
        <mxCell id="vVe2Fx5Xyn_7vQ3Fg-Rb-32" value="&lt;font style=&quot;font-size: 16px&quot; color=&quot;#ffffff&quot;&gt;管网数据一体化采集入库系统&lt;/font&gt;" style="rounded=0;whiteSpace=wrap;html=1;strokeColor=#FFFFFF;fillColor=#8DCACC;" vertex="1" parent="1">
          <mxGeometry x="210" y="460" width="201" height="70" as="geometry" />
        </mxCell>
        <mxCell id="vVe2Fx5Xyn_7vQ3Fg-Rb-33" value="&lt;font style=&quot;font-size: 16px&quot; color=&quot;#ffffff&quot;&gt;管网GIS数据编辑系统&lt;/font&gt;" style="rounded=0;whiteSpace=wrap;html=1;strokeColor=#FFFFFF;fillColor=#8DCACC;" vertex="1" parent="1">
          <mxGeometry x="524" y="460" width="201" height="70" as="geometry" />
        </mxCell>
        <mxCell id="vVe2Fx5Xyn_7vQ3Fg-Rb-35" value="&lt;font color=&quot;#ffffff&quot;&gt;&lt;span style=&quot;font-size: 16px&quot;&gt;管网GIS应用系统&lt;/span&gt;&lt;/font&gt;" style="rounded=0;whiteSpace=wrap;html=1;strokeColor=#FFFFFF;fillColor=#8DCACC;" vertex="1" parent="1">
          <mxGeometry x="829" y="460" width="201" height="70" as="geometry" />
        </mxCell>
        <mxCell id="vVe2Fx5Xyn_7vQ3Fg-Rb-36" value="&lt;font color=&quot;#ffffff&quot;&gt;&lt;span style=&quot;font-size: 16px&quot;&gt;管网GIS移动应用系统&lt;/span&gt;&lt;/font&gt;" style="rounded=0;whiteSpace=wrap;html=1;strokeColor=#FFFFFF;fillColor=#8DCACC;" vertex="1" parent="1">
          <mxGeometry x="1126" y="460" width="201" height="70" as="geometry" />
        </mxCell>
        <mxCell id="vVe2Fx5Xyn_7vQ3Fg-Rb-37" value="&lt;font color=&quot;#000000&quot;&gt;管网管理&lt;/font&gt;" style="text;html=1;strokeColor=none;fillColor=none;align=center;verticalAlign=middle;whiteSpace=wrap;rounded=0;fontSize=16;fontColor=#FFFFFF;fontStyle=1" vertex="1" parent="1">
          <mxGeometry x="120" y="480" width="70" height="30" as="geometry" />
        </mxCell>
        <mxCell id="vVe2Fx5Xyn_7vQ3Fg-Rb-38" value="" style="rounded=0;whiteSpace=wrap;html=1;fontSize=16;fontColor=#000000;strokeColor=#FFFFFF;fillColor=#8DCACC;" vertex="1" parent="1">
          <mxGeometry x="100" y="550" width="1280" height="135" as="geometry" />
        </mxCell>
        <mxCell id="vVe2Fx5Xyn_7vQ3Fg-Rb-43" value="时空信息云平台" style="rounded=0;whiteSpace=wrap;html=1;fontSize=16;fontColor=#000000;strokeColor=none;strokeWidth=2;fillColor=#FFFFFF;fontStyle=1" vertex="1" parent="1">
          <mxGeometry x="206" y="588.75" width="200" height="57.5" as="geometry" />
        </mxCell>
        <mxCell id="vVe2Fx5Xyn_7vQ3Fg-Rb-44" value="&lt;font color=&quot;#ffffff&quot;&gt;基础支撑平台&lt;/font&gt;" style="text;html=1;strokeColor=none;fillColor=none;align=center;verticalAlign=middle;whiteSpace=wrap;rounded=0;fontSize=16;fontColor=#000000;" vertex="1" parent="1">
          <mxGeometry x="125" y="602.5" width="60" height="30" as="geometry" />
        </mxCell>
        <mxCell id="vVe2Fx5Xyn_7vQ3Fg-Rb-45" value="时空信息云平台" style="rounded=0;whiteSpace=wrap;html=1;fontSize=16;fontColor=#000000;strokeColor=none;strokeWidth=2;fillColor=#FFFFFF;fontStyle=1" vertex="1" parent="1">
          <mxGeometry x="470" y="588.75" width="200" height="57.5" as="geometry" />
        </mxCell>
        <mxCell id="vVe2Fx5Xyn_7vQ3Fg-Rb-46" value="时空信息云平台" style="rounded=0;whiteSpace=wrap;html=1;fontSize=16;fontColor=#000000;strokeColor=none;strokeWidth=2;fillColor=#FFFFFF;fontStyle=1" vertex="1" parent="1">
          <mxGeometry x="732" y="588.75" width="200" height="57.5" as="geometry" />
        </mxCell>
        <mxCell id="vVe2Fx5Xyn_7vQ3Fg-Rb-47" value="时空信息云平台" style="rounded=0;whiteSpace=wrap;html=1;fontSize=16;fontColor=#000000;strokeColor=none;strokeWidth=2;fillColor=#FFFFFF;fontStyle=1" vertex="1" parent="1">
          <mxGeometry x="1003.75" y="588.75" width="200" height="57.5" as="geometry" />
        </mxCell>
        <mxCell id="vVe2Fx5Xyn_7vQ3Fg-Rb-48" value="..." style="rounded=0;whiteSpace=wrap;html=1;fontSize=16;fontColor=#000000;strokeColor=none;strokeWidth=2;fillColor=#FFFFFF;" vertex="1" parent="1">
          <mxGeometry x="1261" y="590" width="84" height="56.25" as="geometry" />
        </mxCell>
        <mxCell id="vVe2Fx5Xyn_7vQ3Fg-Rb-50" value="" style="rounded=1;whiteSpace=wrap;html=1;fillColor=#D6D6D6;fontColor=#333333;strokeColor=#F7F7F7;fillOpacity=100;strokeOpacity=100;" vertex="1" parent="1">
          <mxGeometry x="100" y="695" width="1280" height="245" as="geometry" />
        </mxCell>
        <mxCell id="vVe2Fx5Xyn_7vQ3Fg-Rb-52" value="&lt;font style=&quot;font-size: 20px&quot; color=&quot;#000000&quot;&gt;大数据中心&lt;/font&gt;" style="text;html=1;strokeColor=none;fillColor=none;align=center;verticalAlign=middle;whiteSpace=wrap;rounded=0;fontSize=25;fontColor=#FFFFFF;" vertex="1" parent="1">
          <mxGeometry x="120" y="777.5" width="30" height="80" as="geometry" />
        </mxCell>
        <mxCell id="JfuV8sE-HrC9HCaVTEUf-1" value="" style="rounded=0;whiteSpace=wrap;html=1;fontSize=16;fontColor=#000000;strokeColor=#67AB9F;fillColor=#D6D6D6;strokeWidth=2;labelBackgroundColor=default;" vertex="1" parent="1">
          <mxGeometry x="165" y="710" width="1195" height="70" as="geometry" />
        </mxCell>
        <mxCell id="vVe2Fx5Xyn_7vQ3Fg-Rb-51" value="数据模型创建" style="rounded=0;whiteSpace=wrap;html=1;fontSize=16;fontColor=#000000;strokeColor=none;strokeWidth=2;fillColor=#FFFFFF;fontStyle=0" vertex="1" parent="1">
          <mxGeometry x="224" y="724.06" width="150" height="41.88" as="geometry" />
        </mxCell>
        <mxCell id="JfuV8sE-HrC9HCaVTEUf-3" value="&lt;font color=&quot;#000000&quot;&gt;数据&lt;br&gt;管理&lt;/font&gt;" style="text;html=1;strokeColor=none;fillColor=none;align=center;verticalAlign=middle;whiteSpace=wrap;rounded=0;fontSize=16;fontColor=#FFFFFF;fontStyle=0" vertex="1" parent="1">
          <mxGeometry x="174" y="730.01" width="45" height="29.99" as="geometry" />
        </mxCell>
        <mxCell id="JfuV8sE-HrC9HCaVTEUf-4" value="数据抽取" style="rounded=0;whiteSpace=wrap;html=1;fontSize=16;fontColor=#000000;strokeColor=none;strokeWidth=2;fillColor=#FFFFFF;fontStyle=0" vertex="1" parent="1">
          <mxGeometry x="400.75" y="724.06" width="150" height="41.88" as="geometry" />
        </mxCell>
        <mxCell id="JfuV8sE-HrC9HCaVTEUf-5" value="数据转换" style="rounded=0;whiteSpace=wrap;html=1;fontSize=16;fontColor=#000000;strokeColor=none;strokeWidth=2;fillColor=#FFFFFF;fontStyle=0" vertex="1" parent="1">
          <mxGeometry x="575" y="724.0699999999999" width="150" height="41.88" as="geometry" />
        </mxCell>
        <mxCell id="JfuV8sE-HrC9HCaVTEUf-6" value="数据装载" style="rounded=0;whiteSpace=wrap;html=1;fontSize=16;fontColor=#000000;strokeColor=none;strokeWidth=2;fillColor=#FFFFFF;fontStyle=0" vertex="1" parent="1">
          <mxGeometry x="745" y="724.06" width="150" height="41.88" as="geometry" />
        </mxCell>
        <mxCell id="JfuV8sE-HrC9HCaVTEUf-7" value="数据备份" style="rounded=0;whiteSpace=wrap;html=1;fontSize=16;fontColor=#000000;strokeColor=none;strokeWidth=2;fillColor=#FFFFFF;fontStyle=0" vertex="1" parent="1">
          <mxGeometry x="922.5" y="724.0699999999999" width="150" height="41.88" as="geometry" />
        </mxCell>
        <mxCell id="JfuV8sE-HrC9HCaVTEUf-8" value="数据恢复" style="rounded=0;whiteSpace=wrap;html=1;fontSize=16;fontColor=#000000;strokeColor=none;strokeWidth=2;fillColor=#FFFFFF;fontStyle=0" vertex="1" parent="1">
          <mxGeometry x="1100" y="724.06" width="150" height="41.88" as="geometry" />
        </mxCell>
        <mxCell id="JfuV8sE-HrC9HCaVTEUf-9" value="..." style="rounded=0;whiteSpace=wrap;html=1;fontSize=16;fontColor=#000000;strokeColor=none;strokeWidth=2;fillColor=#FFFFFF;fontStyle=0" vertex="1" parent="1">
          <mxGeometry x="1271" y="724.06" width="64" height="41.88" as="geometry" />
        </mxCell>
        <mxCell id="JfuV8sE-HrC9HCaVTEUf-10" value="" style="rounded=0;whiteSpace=wrap;html=1;fontSize=16;fontColor=#000000;strokeColor=#67AB9F;fillColor=#D6D6D6;strokeWidth=2;labelBackgroundColor=default;imageAspect=1;" vertex="1" parent="1">
          <mxGeometry x="165" y="790" width="1195" height="130" as="geometry" />
        </mxCell>
        <mxCell id="JfuV8sE-HrC9HCaVTEUf-11" value="&lt;font color=&quot;#000000&quot;&gt;数据&lt;br&gt;管理&lt;/font&gt;" style="text;html=1;strokeColor=none;fillColor=none;align=center;verticalAlign=middle;whiteSpace=wrap;rounded=0;fontSize=16;fontColor=#FFFFFF;fontStyle=0" vertex="1" parent="1">
          <mxGeometry x="172.5" y="840.01" width="45" height="29.99" as="geometry" />
        </mxCell>
        <mxCell id="JfuV8sE-HrC9HCaVTEUf-12" value="" style="rounded=1;whiteSpace=wrap;html=1;labelBackgroundColor=default;fontSize=20;fontColor=#000000;strokeColor=none;strokeWidth=2;fillColor=#8DCACC;" vertex="1" parent="1">
          <mxGeometry x="230" y="797.5" width="350" height="112.5" as="geometry" />
        </mxCell>
        <mxCell id="JfuV8sE-HrC9HCaVTEUf-15" value="" style="group" vertex="1" connectable="0" parent="1">
          <mxGeometry x="249.25" y="829" width="70.75" height="75" as="geometry" />
        </mxCell>
        <mxCell id="JfuV8sE-HrC9HCaVTEUf-13" value="" style="shape=cylinder3;whiteSpace=wrap;html=1;boundedLbl=1;backgroundOutline=1;size=15;rounded=1;labelBackgroundColor=default;fontSize=20;fontColor=#000000;strokeColor=#67AB9F;strokeWidth=2;fillColor=#8DCACC;" vertex="1" parent="JfuV8sE-HrC9HCaVTEUf-15">
          <mxGeometry width="70.75" height="75" as="geometry" />
        </mxCell>
        <mxCell id="JfuV8sE-HrC9HCaVTEUf-14" value="基础地形&lt;br&gt;数据库" style="text;html=1;strokeColor=none;fillColor=none;align=center;verticalAlign=middle;whiteSpace=wrap;rounded=0;labelBackgroundColor=#8DCACC;fontSize=14;fontColor=#FFFFFF;" vertex="1" parent="JfuV8sE-HrC9HCaVTEUf-15">
          <mxGeometry x="5.75" y="35" width="60" height="30" as="geometry" />
        </mxCell>
        <mxCell id="JfuV8sE-HrC9HCaVTEUf-17" value="" style="group" vertex="1" connectable="0" parent="1">
          <mxGeometry x="330" y="829" width="70.75" height="81" as="geometry" />
        </mxCell>
        <mxCell id="JfuV8sE-HrC9HCaVTEUf-18" value="" style="shape=cylinder3;whiteSpace=wrap;html=1;boundedLbl=1;backgroundOutline=1;size=15;rounded=1;labelBackgroundColor=default;fontSize=20;fontColor=#000000;strokeColor=#67AB9F;strokeWidth=2;fillColor=#8DCACC;" vertex="1" parent="JfuV8sE-HrC9HCaVTEUf-17">
          <mxGeometry width="70.75" height="75" as="geometry" />
        </mxCell>
        <mxCell id="JfuV8sE-HrC9HCaVTEUf-19" value="供水管网&lt;br&gt;数据库" style="text;html=1;strokeColor=none;fillColor=none;align=center;verticalAlign=middle;whiteSpace=wrap;rounded=0;labelBackgroundColor=#8DCACC;fontSize=14;fontColor=#FFFFFF;" vertex="1" parent="JfuV8sE-HrC9HCaVTEUf-17">
          <mxGeometry x="5.75" y="35" width="60" height="30" as="geometry" />
        </mxCell>
        <mxCell id="JfuV8sE-HrC9HCaVTEUf-27" value="" style="group" vertex="1" connectable="0" parent="1">
          <mxGeometry x="411" y="828" width="70.75" height="75" as="geometry" />
        </mxCell>
        <mxCell id="JfuV8sE-HrC9HCaVTEUf-28" value="" style="shape=cylinder3;whiteSpace=wrap;html=1;boundedLbl=1;backgroundOutline=1;size=15;rounded=1;labelBackgroundColor=default;fontSize=20;fontColor=#000000;strokeColor=#67AB9F;strokeWidth=2;fillColor=#8DCACC;" vertex="1" parent="JfuV8sE-HrC9HCaVTEUf-27">
          <mxGeometry width="70.75" height="75" as="geometry" />
        </mxCell>
        <mxCell id="JfuV8sE-HrC9HCaVTEUf-29" value="地名地址&lt;br&gt;数据库" style="text;html=1;strokeColor=none;fillColor=none;align=center;verticalAlign=middle;whiteSpace=wrap;rounded=0;labelBackgroundColor=#8DCACC;fontSize=14;fontColor=#FFFFFF;" vertex="1" parent="JfuV8sE-HrC9HCaVTEUf-27">
          <mxGeometry x="5.75" y="35" width="60" height="30" as="geometry" />
        </mxCell>
        <mxCell id="JfuV8sE-HrC9HCaVTEUf-30" value="" style="group" vertex="1" connectable="0" parent="1">
          <mxGeometry x="491.75" y="828" width="70.75" height="75" as="geometry" />
        </mxCell>
        <mxCell id="JfuV8sE-HrC9HCaVTEUf-31" value="" style="shape=cylinder3;whiteSpace=wrap;html=1;boundedLbl=1;backgroundOutline=1;size=15;rounded=1;labelBackgroundColor=default;fontSize=20;fontColor=#000000;strokeColor=#67AB9F;strokeWidth=2;fillColor=#8DCACC;" vertex="1" parent="JfuV8sE-HrC9HCaVTEUf-30">
          <mxGeometry width="70.75" height="75" as="geometry" />
        </mxCell>
        <mxCell id="JfuV8sE-HrC9HCaVTEUf-32" value="专题点位数据库" style="text;html=1;strokeColor=none;fillColor=none;align=center;verticalAlign=middle;whiteSpace=wrap;rounded=0;labelBackgroundColor=#8DCACC;fontSize=14;fontColor=#FFFFFF;" vertex="1" parent="JfuV8sE-HrC9HCaVTEUf-30">
          <mxGeometry x="5.75" y="35" width="60" height="30" as="geometry" />
        </mxCell>
        <mxCell id="JfuV8sE-HrC9HCaVTEUf-33" value="&lt;font color=&quot;#000000&quot;&gt;空间信息数据库&lt;/font&gt;" style="text;html=1;strokeColor=none;fillColor=none;align=center;verticalAlign=middle;whiteSpace=wrap;rounded=0;fontSize=16;fontColor=#FFFFFF;fontStyle=0" vertex="1" parent="1">
          <mxGeometry x="320" y="800.02" width="160" height="29.99" as="geometry" />
        </mxCell>
        <mxCell id="JfuV8sE-HrC9HCaVTEUf-34" value="" style="rounded=1;whiteSpace=wrap;html=1;labelBackgroundColor=default;fontSize=20;fontColor=#000000;strokeColor=none;strokeWidth=2;fillColor=#8DCACC;" vertex="1" parent="1">
          <mxGeometry x="590" y="797.5" width="460" height="112.5" as="geometry" />
        </mxCell>
        <mxCell id="JfuV8sE-HrC9HCaVTEUf-35" value="" style="group" vertex="1" connectable="0" parent="1">
          <mxGeometry x="609.25" y="829" width="70.75" height="75" as="geometry" />
        </mxCell>
        <mxCell id="JfuV8sE-HrC9HCaVTEUf-36" value="" style="shape=cylinder3;whiteSpace=wrap;html=1;boundedLbl=1;backgroundOutline=1;size=15;rounded=1;labelBackgroundColor=default;fontSize=20;fontColor=#000000;strokeColor=#67AB9F;strokeWidth=2;fillColor=#8DCACC;" vertex="1" parent="JfuV8sE-HrC9HCaVTEUf-35">
          <mxGeometry width="70.75" height="75" as="geometry" />
        </mxCell>
        <mxCell id="JfuV8sE-HrC9HCaVTEUf-37" value="生产&lt;br&gt;数据库" style="text;html=1;strokeColor=none;fillColor=none;align=center;verticalAlign=middle;whiteSpace=wrap;rounded=0;labelBackgroundColor=#8DCACC;fontSize=14;fontColor=#FFFFFF;" vertex="1" parent="JfuV8sE-HrC9HCaVTEUf-35">
          <mxGeometry x="5.75" y="35" width="60" height="30" as="geometry" />
        </mxCell>
        <mxCell id="JfuV8sE-HrC9HCaVTEUf-38" value="" style="group" vertex="1" connectable="0" parent="1">
          <mxGeometry x="690" y="829" width="70.75" height="75" as="geometry" />
        </mxCell>
        <mxCell id="JfuV8sE-HrC9HCaVTEUf-39" value="" style="shape=cylinder3;whiteSpace=wrap;html=1;boundedLbl=1;backgroundOutline=1;size=15;rounded=1;labelBackgroundColor=default;fontSize=20;fontColor=#000000;strokeColor=#67AB9F;strokeWidth=2;fillColor=#8DCACC;" vertex="1" parent="JfuV8sE-HrC9HCaVTEUf-38">
          <mxGeometry width="70.75" height="75" as="geometry" />
        </mxCell>
        <mxCell id="JfuV8sE-HrC9HCaVTEUf-40" value="用户&lt;br&gt;数据库" style="text;html=1;strokeColor=none;fillColor=none;align=center;verticalAlign=middle;whiteSpace=wrap;rounded=0;labelBackgroundColor=#8DCACC;fontSize=14;fontColor=#FFFFFF;" vertex="1" parent="JfuV8sE-HrC9HCaVTEUf-38">
          <mxGeometry x="5.75" y="35" width="60" height="30" as="geometry" />
        </mxCell>
        <mxCell id="JfuV8sE-HrC9HCaVTEUf-41" value="" style="group" vertex="1" connectable="0" parent="1">
          <mxGeometry x="771" y="828" width="70.75" height="75" as="geometry" />
        </mxCell>
        <mxCell id="JfuV8sE-HrC9HCaVTEUf-42" value="" style="shape=cylinder3;whiteSpace=wrap;html=1;boundedLbl=1;backgroundOutline=1;size=15;rounded=1;labelBackgroundColor=default;fontSize=20;fontColor=#000000;strokeColor=#67AB9F;strokeWidth=2;fillColor=#8DCACC;" vertex="1" parent="JfuV8sE-HrC9HCaVTEUf-41">
          <mxGeometry width="70.75" height="75" as="geometry" />
        </mxCell>
        <mxCell id="JfuV8sE-HrC9HCaVTEUf-43" value="检测&lt;br&gt;数据库" style="text;html=1;strokeColor=none;fillColor=none;align=center;verticalAlign=middle;whiteSpace=wrap;rounded=0;labelBackgroundColor=#8DCACC;fontSize=14;fontColor=#FFFFFF;" vertex="1" parent="JfuV8sE-HrC9HCaVTEUf-41">
          <mxGeometry x="5.75" y="35" width="60" height="30" as="geometry" />
        </mxCell>
        <mxCell id="JfuV8sE-HrC9HCaVTEUf-44" value="" style="group" vertex="1" connectable="0" parent="1">
          <mxGeometry x="851.75" y="828" width="70.75" height="75" as="geometry" />
        </mxCell>
        <mxCell id="JfuV8sE-HrC9HCaVTEUf-45" value="" style="shape=cylinder3;whiteSpace=wrap;html=1;boundedLbl=1;backgroundOutline=1;size=15;rounded=1;labelBackgroundColor=default;fontSize=20;fontColor=#000000;strokeColor=#67AB9F;strokeWidth=2;fillColor=#8DCACC;" vertex="1" parent="JfuV8sE-HrC9HCaVTEUf-44">
          <mxGeometry width="70.75" height="75" as="geometry" />
        </mxCell>
        <mxCell id="JfuV8sE-HrC9HCaVTEUf-46" value="运营&lt;br&gt;数据库" style="text;html=1;strokeColor=none;fillColor=none;align=center;verticalAlign=middle;whiteSpace=wrap;rounded=0;labelBackgroundColor=#8DCACC;fontSize=14;fontColor=#FFFFFF;" vertex="1" parent="JfuV8sE-HrC9HCaVTEUf-44">
          <mxGeometry x="5.75" y="35" width="60" height="30" as="geometry" />
        </mxCell>
        <mxCell id="JfuV8sE-HrC9HCaVTEUf-47" value="&lt;font color=&quot;#000000&quot;&gt;供水业务数据库&lt;/font&gt;" style="text;html=1;strokeColor=none;fillColor=none;align=center;verticalAlign=middle;whiteSpace=wrap;rounded=0;fontSize=16;fontColor=#FFFFFF;fontStyle=0" vertex="1" parent="1">
          <mxGeometry x="752" y="800.02" width="160" height="29.99" as="geometry" />
        </mxCell>
        <mxCell id="JfuV8sE-HrC9HCaVTEUf-48" value="" style="group" vertex="1" connectable="0" parent="1">
          <mxGeometry x="933" y="828" width="70.75" height="75" as="geometry" />
        </mxCell>
        <mxCell id="JfuV8sE-HrC9HCaVTEUf-49" value="" style="shape=cylinder3;whiteSpace=wrap;html=1;boundedLbl=1;backgroundOutline=1;size=15;rounded=1;labelBackgroundColor=default;fontSize=20;fontColor=#000000;strokeColor=#67AB9F;strokeWidth=2;fillColor=#8DCACC;" vertex="1" parent="JfuV8sE-HrC9HCaVTEUf-48">
          <mxGeometry width="70.75" height="75" as="geometry" />
        </mxCell>
        <mxCell id="JfuV8sE-HrC9HCaVTEUf-50" value="工程&lt;br&gt;数据库" style="text;html=1;strokeColor=none;fillColor=none;align=center;verticalAlign=middle;whiteSpace=wrap;rounded=0;labelBackgroundColor=#8DCACC;fontSize=14;fontColor=#FFFFFF;" vertex="1" parent="JfuV8sE-HrC9HCaVTEUf-48">
          <mxGeometry x="5.75" y="35" width="60" height="30" as="geometry" />
        </mxCell>
        <mxCell id="JfuV8sE-HrC9HCaVTEUf-51" value="&lt;font style=&quot;font-size: 15px&quot;&gt;...&lt;/font&gt;" style="text;html=1;strokeColor=none;fillColor=none;align=center;verticalAlign=middle;whiteSpace=wrap;rounded=0;labelBackgroundColor=#8DCACC;fontSize=14;fontColor=#FFFFFF;" vertex="1" parent="1">
          <mxGeometry x="1010" y="850.5" width="30" height="30" as="geometry" />
        </mxCell>
        <mxCell id="JfuV8sE-HrC9HCaVTEUf-52" value="&lt;font color=&quot;#000000&quot;&gt;数据交互&lt;/font&gt;" style="text;html=1;strokeColor=none;fillColor=none;align=center;verticalAlign=middle;whiteSpace=wrap;rounded=0;labelBackgroundColor=none;fontSize=15;fontColor=#FFFFFF;" vertex="1" parent="1">
          <mxGeometry x="1070" y="815.51" width="30" height="79" as="geometry" />
        </mxCell>
        <mxCell id="JfuV8sE-HrC9HCaVTEUf-54" value="" style="html=1;shadow=0;dashed=0;align=center;verticalAlign=middle;shape=mxgraph.arrows2.jumpInArrow;dy=4.63;dx=18.93;arrowHead=15.68;rounded=1;labelBackgroundColor=none;fontSize=15;fontColor=#000000;strokeColor=none;strokeWidth=2;fillColor=#67AB9F;rotation=-30;" vertex="1" parent="1">
          <mxGeometry x="1043.17" y="838.18" width="36.83" height="31.82" as="geometry" />
        </mxCell>
        <mxCell id="JfuV8sE-HrC9HCaVTEUf-56" value="" style="html=1;shadow=0;dashed=0;align=center;verticalAlign=middle;shape=mxgraph.arrows2.jumpInArrow;dy=4.63;dx=18.93;arrowHead=15.68;rounded=1;labelBackgroundColor=none;fontSize=15;fontColor=#000000;strokeColor=none;strokeWidth=2;fillColor=#67AB9F;rotation=-210;" vertex="1" parent="1">
          <mxGeometry x="1090" y="827.9999999999999" width="36.83" height="31.82" as="geometry" />
        </mxCell>
        <mxCell id="JfuV8sE-HrC9HCaVTEUf-57" value="" style="rounded=1;whiteSpace=wrap;html=1;labelBackgroundColor=default;fontSize=20;fontColor=#000000;strokeColor=none;strokeWidth=2;fillColor=#8DCACC;" vertex="1" parent="1">
          <mxGeometry x="1122" y="797.5" width="228" height="112.5" as="geometry" />
        </mxCell>
        <mxCell id="JfuV8sE-HrC9HCaVTEUf-58" value="" style="group" vertex="1" connectable="0" parent="1">
          <mxGeometry x="1141.25" y="829" width="70.75" height="75" as="geometry" />
        </mxCell>
        <mxCell id="JfuV8sE-HrC9HCaVTEUf-59" value="" style="shape=cylinder3;whiteSpace=wrap;html=1;boundedLbl=1;backgroundOutline=1;size=15;rounded=1;labelBackgroundColor=default;fontSize=20;fontColor=#000000;strokeColor=#67AB9F;strokeWidth=2;fillColor=#8DCACC;" vertex="1" parent="JfuV8sE-HrC9HCaVTEUf-58">
          <mxGeometry width="70.75" height="75" as="geometry" />
        </mxCell>
        <mxCell id="JfuV8sE-HrC9HCaVTEUf-60" value="互联网地图数据库" style="text;html=1;strokeColor=none;fillColor=none;align=center;verticalAlign=middle;whiteSpace=wrap;rounded=0;labelBackgroundColor=#8DCACC;fontSize=14;fontColor=#FFFFFF;" vertex="1" parent="JfuV8sE-HrC9HCaVTEUf-58">
          <mxGeometry x="5.75" y="35" width="60" height="30" as="geometry" />
        </mxCell>
        <mxCell id="JfuV8sE-HrC9HCaVTEUf-61" value="" style="group" vertex="1" connectable="0" parent="1">
          <mxGeometry x="1222" y="829" width="70.75" height="75" as="geometry" />
        </mxCell>
        <mxCell id="JfuV8sE-HrC9HCaVTEUf-62" value="" style="shape=cylinder3;whiteSpace=wrap;html=1;boundedLbl=1;backgroundOutline=1;size=15;rounded=1;labelBackgroundColor=default;fontSize=20;fontColor=#000000;strokeColor=#67AB9F;strokeWidth=2;fillColor=#8DCACC;" vertex="1" parent="JfuV8sE-HrC9HCaVTEUf-61">
          <mxGeometry width="70.75" height="75" as="geometry" />
        </mxCell>
        <mxCell id="JfuV8sE-HrC9HCaVTEUf-63" value="其他业务&lt;br&gt;数据库" style="text;html=1;strokeColor=none;fillColor=none;align=center;verticalAlign=middle;whiteSpace=wrap;rounded=0;labelBackgroundColor=#8DCACC;fontSize=14;fontColor=#FFFFFF;" vertex="1" parent="JfuV8sE-HrC9HCaVTEUf-61">
          <mxGeometry x="5.75" y="35" width="60" height="30" as="geometry" />
        </mxCell>
        <mxCell id="JfuV8sE-HrC9HCaVTEUf-70" value="&lt;font color=&quot;#000000&quot;&gt;第三方数据库&lt;/font&gt;" style="text;html=1;strokeColor=none;fillColor=none;align=center;verticalAlign=middle;whiteSpace=wrap;rounded=0;fontSize=16;fontColor=#FFFFFF;fontStyle=0" vertex="1" parent="1">
          <mxGeometry x="1156" y="799.01" width="160" height="29.99" as="geometry" />
        </mxCell>
        <mxCell id="JfuV8sE-HrC9HCaVTEUf-71" value="&lt;font style=&quot;font-size: 15px&quot;&gt;...&lt;/font&gt;" style="text;html=1;strokeColor=none;fillColor=none;align=center;verticalAlign=middle;whiteSpace=wrap;rounded=0;labelBackgroundColor=#8DCACC;fontSize=14;fontColor=#FFFFFF;" vertex="1" parent="1">
          <mxGeometry x="1305" y="850.5" width="30" height="30" as="geometry" />
        </mxCell>
        <mxCell id="JfuV8sE-HrC9HCaVTEUf-72" value="" style="rounded=1;whiteSpace=wrap;html=1;labelBackgroundColor=none;fontSize=15;fontColor=#000000;strokeColor=#FFFFFF;strokeWidth=2;fillColor=#67AB9F;" vertex="1" parent="1">
          <mxGeometry x="282" y="959" width="940" height="141" as="geometry" />
        </mxCell>
        <mxCell id="JfuV8sE-HrC9HCaVTEUf-73" value="&lt;font style=&quot;font-size: 20px&quot; color=&quot;#000000&quot;&gt;基础设施&lt;/font&gt;" style="text;html=1;strokeColor=none;fillColor=none;align=center;verticalAlign=middle;whiteSpace=wrap;rounded=0;fontSize=25;fontColor=#FFFFFF;" vertex="1" parent="1">
          <mxGeometry x="135" y="995" width="95" height="80" as="geometry" />
        </mxCell>
        <mxCell id="JfuV8sE-HrC9HCaVTEUf-74" value="物联感知网络" style="rounded=1;whiteSpace=wrap;html=1;labelBackgroundColor=none;fontSize=15;fontColor=#000000;strokeColor=none;strokeWidth=2;fillColor=#D6D6D6;" vertex="1" parent="1">
          <mxGeometry x="110" y="1120" width="1280" height="50" as="geometry" />
        </mxCell>
        <mxCell id="JfuV8sE-HrC9HCaVTEUf-76" value="互联网" style="text;html=1;strokeColor=none;fillColor=none;align=center;verticalAlign=middle;whiteSpace=wrap;rounded=0;fontSize=14;fontColor=#FFFFFF;" vertex="1" parent="1">
          <mxGeometry x="340.75" y="1054" width="60" height="30" as="geometry" />
        </mxCell>
        <mxCell id="JfuV8sE-HrC9HCaVTEUf-77" value="局域网" style="text;html=1;strokeColor=none;fillColor=none;align=center;verticalAlign=middle;whiteSpace=wrap;rounded=0;fontSize=14;fontColor=#FFFFFF;" vertex="1" parent="1">
          <mxGeometry x="530" y="1054" width="60" height="30" as="geometry" />
        </mxCell>
        <mxCell id="JfuV8sE-HrC9HCaVTEUf-78" value="应用/数据服务器" style="text;html=1;strokeColor=none;fillColor=none;align=center;verticalAlign=middle;whiteSpace=wrap;rounded=0;fontSize=14;fontColor=#FFFFFF;" vertex="1" parent="1">
          <mxGeometry x="703.5" y="1054" width="118" height="30" as="geometry" />
        </mxCell>
        <mxCell id="JfuV8sE-HrC9HCaVTEUf-79" value="网络安全设备" style="text;html=1;strokeColor=none;fillColor=none;align=center;verticalAlign=middle;whiteSpace=wrap;rounded=0;fontSize=14;fontColor=#FFFFFF;" vertex="1" parent="1">
          <mxGeometry x="895" y="1054" width="95" height="30" as="geometry" />
        </mxCell>
        <mxCell id="JfuV8sE-HrC9HCaVTEUf-80" value="网络通讯设备" style="text;html=1;strokeColor=none;fillColor=none;align=center;verticalAlign=middle;whiteSpace=wrap;rounded=0;fontSize=14;fontColor=#FFFFFF;" vertex="1" parent="1">
          <mxGeometry x="1072.5" y="1054" width="87.5" height="30" as="geometry" />
        </mxCell>
        <mxCell id="JfuV8sE-HrC9HCaVTEUf-81" value="&lt;font style=&quot;font-size: 12px&quot; color=&quot;#67ab9f&quot;&gt;● ● ●&lt;/font&gt;" style="text;html=1;strokeColor=none;fillColor=none;align=center;verticalAlign=middle;whiteSpace=wrap;rounded=0;labelBackgroundColor=none;fontSize=12;fontColor=#FFFFFF;" vertex="1" parent="1">
          <mxGeometry x="1275" y="1020" width="45" height="30" as="geometry" />
        </mxCell>
        <mxCell id="JfuV8sE-HrC9HCaVTEUf-82" value="&lt;font color=&quot;#ffffff&quot; size=&quot;1&quot;&gt;&lt;span style=&quot;font-size: 25px&quot;&gt;信息安全体系及管理制度&lt;/span&gt;&lt;/font&gt;" style="rounded=1;whiteSpace=wrap;html=1;strokeColor=#FFFFFF;fillColor=#8DCACC;" vertex="1" parent="1">
          <mxGeometry x="1400" y="30" width="50" height="1140" as="geometry" />
        </mxCell>
        <mxCell id="JfuV8sE-HrC9HCaVTEUf-83" value="" style="verticalLabelPosition=bottom;verticalAlign=top;html=1;shadow=0;dashed=0;strokeWidth=1;shape=mxgraph.android.tab2;strokeColor=#8DCACC;direction=north;rounded=1;labelBackgroundColor=none;fontSize=12;fontColor=#67AB9F;fillColor=#8DCACC;" vertex="1" parent="1">
          <mxGeometry x="475" y="54" width="66.86" height="46" as="geometry" />
        </mxCell>
        <mxCell id="JfuV8sE-HrC9HCaVTEUf-84" value="" style="verticalLabelPosition=bottom;verticalAlign=top;html=1;shadow=0;dashed=0;strokeWidth=1;shape=mxgraph.android.phone2;strokeColor=#8DCACC;rounded=1;labelBackgroundColor=none;fontSize=12;fontColor=#67AB9F;fillColor=#8DCACC;" vertex="1" parent="1">
          <mxGeometry x="732" y="39.5" width="36" height="61" as="geometry" />
        </mxCell>
        <mxCell id="JfuV8sE-HrC9HCaVTEUf-89" value="" style="sketch=0;pointerEvents=1;shadow=0;dashed=0;html=1;strokeColor=none;fillColor=#8DCACC;labelPosition=center;verticalLabelPosition=bottom;verticalAlign=top;outlineConnect=0;align=center;shape=mxgraph.office.users.csv_file;rounded=1;labelBackgroundColor=none;fontSize=12;fontColor=#67AB9F;" vertex="1" parent="1">
          <mxGeometry x="965" y="54" width="59" height="43" as="geometry" />
        </mxCell>
        <mxCell id="JfuV8sE-HrC9HCaVTEUf-91" value="" style="sketch=0;pointerEvents=1;shadow=0;dashed=0;html=1;strokeColor=none;fillColor=#505050;labelPosition=center;verticalLabelPosition=bottom;verticalAlign=top;outlineConnect=0;align=center;shape=mxgraph.office.devices.router;rounded=1;labelBackgroundColor=none;fontSize=12;fontColor=#67AB9F;" vertex="1" parent="1">
          <mxGeometry x="1086.25" y="-81" width="55" height="56" as="geometry" />
        </mxCell>
        <mxCell id="JfuV8sE-HrC9HCaVTEUf-92" value="" style="sketch=0;pointerEvents=1;shadow=0;dashed=0;html=1;strokeColor=none;fillColor=#505050;labelPosition=center;verticalLabelPosition=bottom;verticalAlign=top;outlineConnect=0;align=center;shape=mxgraph.office.concepts.globe_internet;rounded=1;labelBackgroundColor=none;fontSize=12;fontColor=#67AB9F;" vertex="1" parent="1">
          <mxGeometry x="580" y="-140" width="49" height="49" as="geometry" />
        </mxCell>
        <mxCell id="JfuV8sE-HrC9HCaVTEUf-93" value="" style="html=1;verticalLabelPosition=bottom;align=center;labelBackgroundColor=#ffffff;verticalAlign=top;strokeWidth=2;strokeColor=#FFFFFF;shadow=0;dashed=0;shape=mxgraph.ios7.icons.globe;rounded=1;fontSize=12;fontColor=#67AB9F;fillColor=none;" vertex="1" parent="1">
          <mxGeometry x="347.75" y="995" width="44.25" height="45" as="geometry" />
        </mxCell>
      </root>
    </mxGraphModel>
  </diagram>
  <diagram id="EbXgvaKDLVC_U3knA23N" name="第 2 页">
    <mxGraphModel dx="1422" dy="762" grid="1" gridSize="10" guides="1" tooltips="1" connect="1" arrows="1" fold="1" page="1" pageScale="1" pageWidth="827" pageHeight="1169" math="0" shadow="0">
      <root>
        <mxCell id="v_h2Y7OwhkYSsYE_teQM-0" />
        <mxCell id="v_h2Y7OwhkYSsYE_teQM-1" parent="v_h2Y7OwhkYSsYE_teQM-0" />
      </root>
    </mxGraphModel>
  </diagram>
</mxfile>
